<svg id="visual" viewBox="0 0 900 600" width="900" height="600" xmlns="http://www.w3.org/2000/svg" xmlns:xlink="http://www.w3.org/1999/xlink" version="1.1"><rect x="0" y="0" width="900" height="600" fill="#001220"></rect><defs><linearGradient id="grad1_0" x1="33.3%" y1="0%" x2="100%" y2="100%"><stop offset="20%" stop-color="#fbae3c" stop-opacity="1"></stop><stop offset="80%" stop-color="#fbae3c" stop-opacity="1"></stop></linearGradient></defs><defs><linearGradient id="grad1_1" x1="33.3%" y1="0%" x2="100%" y2="100%"><stop offset="20%" stop-color="#fbae3c" stop-opacity="1"></stop><stop offset="80%" stop-color="#f17c53" stop-opacity="1"></stop></linearGradient></defs><defs><linearGradient id="grad1_2" x1="33.3%" y1="0%" x2="100%" y2="100%"><stop offset="20%" stop-color="#cc5867" stop-opacity="1"></stop><stop offset="80%" stop-color="#f17c53" stop-opacity="1"></stop></linearGradient></defs><defs><linearGradient id="grad1_3" x1="33.3%" y1="0%" x2="100%" y2="100%"><stop offset="20%" stop-color="#cc5867" stop-opacity="1"></stop><stop offset="80%" stop-color="#96446e" stop-opacity="1"></stop></linearGradient></defs><defs><linearGradient id="grad1_4" x1="33.3%" y1="0%" x2="100%" y2="100%"><stop offset="20%" stop-color="#593762" stop-opacity="1"></stop><stop offset="80%" stop-color="#96446e" stop-opacity="1"></stop></linearGradient></defs><defs><linearGradient id="grad1_5" x1="33.3%" y1="0%" x2="100%" y2="100%"><stop offset="20%" stop-color="#593762" stop-opacity="1"></stop><stop offset="80%" stop-color="#232745" stop-opacity="1"></stop></linearGradient></defs><defs><linearGradient id="grad1_6" x1="33.3%" y1="0%" x2="100%" y2="100%"><stop offset="20%" stop-color="#001220" stop-opacity="1"></stop><stop offset="80%" stop-color="#232745" stop-opacity="1"></stop></linearGradient></defs><defs><linearGradient id="grad2_0" x1="0%" y1="0%" x2="66.7%" y2="100%"><stop offset="20%" stop-color="#fbae3c" stop-opacity="1"></stop><stop offset="80%" stop-color="#fbae3c" stop-opacity="1"></stop></linearGradient></defs><defs><linearGradient id="grad2_1" x1="0%" y1="0%" x2="66.7%" y2="100%"><stop offset="20%" stop-color="#f17c53" stop-opacity="1"></stop><stop offset="80%" stop-color="#fbae3c" stop-opacity="1"></stop></linearGradient></defs><defs><linearGradient id="grad2_2" x1="0%" y1="0%" x2="66.7%" y2="100%"><stop offset="20%" stop-color="#f17c53" stop-opacity="1"></stop><stop offset="80%" stop-color="#cc5867" stop-opacity="1"></stop></linearGradient></defs><defs><linearGradient id="grad2_3" x1="0%" y1="0%" x2="66.7%" y2="100%"><stop offset="20%" stop-color="#96446e" stop-opacity="1"></stop><stop offset="80%" stop-color="#cc5867" stop-opacity="1"></stop></linearGradient></defs><defs><linearGradient id="grad2_4" x1="0%" y1="0%" x2="66.7%" y2="100%"><stop offset="20%" stop-color="#96446e" stop-opacity="1"></stop><stop offset="80%" stop-color="#593762" stop-opacity="1"></stop></linearGradient></defs><defs><linearGradient id="grad2_5" x1="0%" y1="0%" x2="66.7%" y2="100%"><stop offset="20%" stop-color="#232745" stop-opacity="1"></stop><stop offset="80%" stop-color="#593762" stop-opacity="1"></stop></linearGradient></defs><defs><linearGradient id="grad2_6" x1="0%" y1="0%" x2="66.7%" y2="100%"><stop offset="20%" stop-color="#232745" stop-opacity="1"></stop><stop offset="80%" stop-color="#001220" stop-opacity="1"></stop></linearGradient></defs><g transform="translate(900, 0)"><path d="M0 405.6C-37.9 380.9 -75.8 356.2 -109.1 335.7C-142.4 315.2 -171 298.8 -206.3 284C-241.6 269.1 -283.6 255.7 -316.3 229.8C-349 204 -372.4 165.7 -385.8 125.3C-399.1 85 -402.4 42.5 -405.6 0L0 0Z" fill="#0f1d33"></path><path d="M0 347.7C-32.5 326.5 -65 305.4 -93.5 287.8C-122 270.2 -146.6 256.2 -176.8 243.4C-207.1 230.6 -243.1 219.1 -271.1 197C-299.2 174.8 -319.2 142 -330.7 107.4C-342.1 72.8 -344.9 36.4 -347.7 0L0 0Z" fill="#3d3056"></path><path d="M0 289.7C-27.1 272.1 -54.2 254.5 -77.9 239.8C-101.7 225.1 -122.1 213.5 -147.4 202.8C-172.6 192.2 -202.6 182.6 -225.9 164.2C-249.3 145.7 -266 118.4 -275.6 89.5C-285.1 60.7 -287.4 30.3 -289.7 0L0 0Z" fill="#773d6b"></path><path d="M0 231.8C-21.7 217.7 -43.3 203.6 -62.3 191.8C-81.3 180.1 -97.7 170.8 -117.9 162.3C-138.1 153.8 -162.1 146.1 -180.8 131.3C-199.4 116.6 -212.8 94.7 -220.4 71.6C-228.1 48.6 -229.9 24.3 -231.8 0L0 0Z" fill="#b34c6d"></path><path d="M0 173.8C-16.2 163.3 -32.5 152.7 -46.7 143.9C-61 135.1 -73.3 128.1 -88.4 121.7C-103.6 115.3 -121.6 109.6 -135.6 98.5C-149.6 87.4 -159.6 71 -165.3 53.7C-171 36.4 -172.4 18.2 -173.8 0L0 0Z" fill="#e1685e"></path><path d="M0 115.9C-10.8 108.8 -21.7 101.8 -31.2 95.9C-40.7 90.1 -48.9 85.4 -58.9 81.1C-69 76.9 -81 73 -90.4 65.7C-99.7 58.3 -106.4 47.3 -110.2 35.8C-114 24.3 -115 12.1 -115.9 0L0 0Z" fill="#f99447"></path><path d="M0 57.9C-5.4 54.4 -10.8 50.9 -15.6 48C-20.3 45 -24.4 42.7 -29.5 40.6C-34.5 38.4 -40.5 36.5 -45.2 32.8C-49.9 29.1 -53.2 23.7 -55.1 17.9C-57 12.1 -57.5 6.1 -57.9 0L0 0Z" fill="#fbae3c"></path></g><g transform="translate(0, 600)"><path d="M0 -405.6C27.2 -357.9 54.4 -310.2 99.5 -306.2C144.6 -302.3 207.5 -342 238.4 -328.2C269.4 -314.3 268.4 -247 279.9 -203.4C291.5 -159.8 315.5 -139.9 338.6 -110C361.6 -80.1 383.6 -40 405.6 0L0 0Z" fill="#0f1d33"></path><path d="M0 -347.7C23.3 -306.8 46.7 -265.9 85.3 -262.5C123.9 -259.1 177.8 -293.1 204.4 -281.3C230.9 -269.4 230 -211.7 239.9 -174.3C249.8 -137 270.5 -120 290.2 -94.3C310 -68.6 328.8 -34.3 347.7 0L0 0Z" fill="#3d3056"></path><path d="M0 -289.7C19.4 -255.7 38.9 -221.6 71.1 -218.7C103.3 -215.9 148.2 -244.3 170.3 -234.4C192.4 -224.5 191.7 -176.4 199.9 -145.3C208.2 -114.1 225.4 -100 241.8 -78.6C258.3 -57.2 274 -28.6 289.7 0L0 0Z" fill="#773d6b"></path><path d="M0 -231.8C15.6 -204.5 31.1 -177.3 56.9 -175C82.6 -172.7 118.6 -195.4 136.2 -187.5C153.9 -179.6 153.4 -141.1 160 -116.2C166.5 -91.3 180.3 -80 193.5 -62.9C206.6 -45.8 219.2 -22.9 231.8 0L0 0Z" fill="#b34c6d"></path><path d="M0 -173.8C11.7 -153.4 23.3 -133 42.6 -131.2C62 -129.5 88.9 -146.6 102.2 -140.6C115.4 -134.7 115 -105.8 120 -87.2C124.9 -68.5 135.2 -60 145.1 -47.1C155 -34.3 164.4 -17.2 173.8 0L0 0Z" fill="#e1685e"></path><path d="M0 -115.9C7.8 -102.3 15.6 -88.6 28.4 -87.5C41.3 -86.4 59.3 -97.7 68.1 -93.8C77 -89.8 76.7 -70.6 80 -58.1C83.3 -45.7 90.2 -40 96.7 -31.4C103.3 -22.9 109.6 -11.4 115.9 0L0 0Z" fill="#f99447"></path><path d="M0 -57.9C3.9 -51.1 7.8 -44.3 14.2 -43.7C20.7 -43.2 29.6 -48.9 34.1 -46.9C38.5 -44.9 38.3 -35.3 40 -29.1C41.6 -22.8 45.1 -20 48.4 -15.7C51.7 -11.4 54.8 -5.7 57.9 0L0 0Z" fill="#fbae3c"></path></g></svg>